<svg version="1.1" id="Layer_1" xmlns="http://www.w3.org/2000/svg" xmlns:xlink="http://www.w3.org/1999/xlink" x="0px" y="0px"
	 width="100%" viewBox="0 0 1346 1966" enable-background="new 0 0 1346 1966" xml:space="preserve">
<path fill="#FFFFFF" opacity="1.000000" stroke="none" 
	d="
M1347.000000,719.000000 
	C1347.000000,1134.956421 1347.000000,1550.912842 1347.000000,1966.934570 
	C898.423950,1966.934570 449.847870,1966.934570 1.000000,1966.934570 
	C1.000000,1553.300659 1.000000,1139.601196 1.391327,725.576782 
	C2.187504,726.098572 2.865626,726.917358 2.955514,727.796326 
	C4.020490,738.210205 4.750023,748.664368 6.058526,759.046082 
	C7.825524,773.065369 9.203338,787.209229 12.213294,800.979431 
	C17.331211,824.393188 22.698772,847.824463 29.566389,870.768005 
	C42.212513,913.016357 58.940773,953.702698 80.095123,992.480225 
	C92.532852,1015.279480 105.349930,1037.878052 121.026047,1058.645386 
	C136.582458,1079.254150 152.040802,1099.983032 168.608124,1119.766602 
	C179.902252,1133.253174 192.643677,1145.611572 205.437637,1157.736084 
	C220.102173,1171.633301 235.212418,1185.108398 250.744797,1198.026489 
	C263.446289,1208.590210 276.579926,1218.784180 290.368652,1227.855225 
	C310.667877,1241.209106 331.347351,1254.087036 352.562988,1265.915771 
	C371.515594,1276.482788 391.054352,1286.189087 410.983185,1294.768311 
	C437.950470,1306.377441 465.607849,1316.459229 494.176270,1323.465332 
	C518.908386,1329.530396 543.830261,1334.891479 568.810608,1339.845825 
	C581.557190,1342.373657 594.579163,1343.750610 607.543579,1344.881470 
	C624.097656,1346.325684 640.726074,1347.911621 657.310181,1347.787476 
	C682.741821,1347.597168 708.166748,1346.083618 733.586548,1344.953125 
	C741.935791,1344.581787 750.320801,1344.076904 758.582703,1342.889893 
	C772.370178,1340.909058 786.188049,1338.860718 799.783142,1335.882324 
	C822.105469,1330.991821 844.596069,1326.426514 866.396973,1319.714600 
	C891.651672,1311.939331 916.705322,1303.083496 940.981812,1292.679688 
	C964.894531,1282.431519 988.217468,1270.534302 1010.908325,1257.776245 
	C1039.802612,1241.530029 1067.420288,1223.099487 1092.786133,1201.613647 
	C1111.433472,1185.818604 1129.937256,1169.828735 1147.944336,1153.314331 
	C1157.037964,1144.974731 1165.253418,1135.586914 1173.220825,1126.129517 
	C1188.347534,1108.173706 1203.357056,1090.097168 1217.782715,1071.578125 
	C1238.350708,1045.173706 1255.632568,1016.558777 1270.825073,986.818115 
	C1281.705322,965.519592 1291.896484,943.745056 1300.546265,921.465088 
	C1309.823364,897.568542 1317.993652,873.117859 1324.683960,848.378113 
	C1330.822754,825.677612 1334.856323,802.357788 1338.852417,779.144714 
	C1341.724243,762.461792 1342.964111,745.500000 1345.038208,728.675781 
	C1345.439697,725.419373 1346.333374,722.223694 1347.000000,719.000000 
M53.790512,1784.000000 
	C87.110016,1783.057129 120.543472,1786.363403 153.749817,1781.883179 
	C168.150406,1779.940063 180.883957,1774.125244 190.311371,1762.264648 
	C203.145966,1746.117065 205.541565,1719.204468 192.658234,1701.394775 
	C188.801544,1696.063232 183.328766,1691.901001 179.329681,1687.931030 
	C183.263855,1683.340210 188.290771,1678.673950 191.837479,1673.070923 
	C198.073669,1663.219238 198.021057,1652.160034 196.035385,1640.967285 
	C193.844803,1628.619629 188.093536,1618.850220 177.455780,1611.720581 
	C166.379425,1604.296753 153.960739,1601.495483 141.190277,1601.178589 
	C116.544838,1600.566528 91.872063,1601.156738 67.213371,1600.937744 
	C53.714455,1600.817993 44.092682,1611.333984 44.057678,1623.933228 
	C43.917877,1674.253906 43.995293,1724.575073 44.006004,1774.896118 
	C44.007332,1781.131958 46.519901,1783.672241 53.790512,1784.000000 
M1171.648560,1785.050903 
	C1185.525269,1783.084961 1198.079956,1777.946045 1208.689575,1768.736816 
	C1224.661377,1754.872803 1230.444946,1736.337280 1230.851440,1716.062988 
	C1231.220337,1697.669922 1230.790161,1679.228516 1229.856812,1660.851929 
	C1229.098633,1645.925293 1223.392944,1632.585571 1213.041992,1621.604980 
	C1197.369263,1604.978638 1177.014526,1599.040405 1155.133057,1598.243042 
	C1144.281250,1597.847534 1133.055176,1598.790527 1122.485596,1601.234985 
	C1088.961914,1608.988037 1068.229614,1633.728638 1068.016602,1669.177002 
	C1067.918579,1685.500366 1067.931274,1701.825439 1068.046875,1718.148560 
	C1068.076904,1722.397583 1068.247559,1726.731201 1069.094116,1730.874756 
	C1074.409668,1756.888428 1089.769287,1774.327881 1115.008301,1782.402100 
	C1133.254028,1788.239258 1152.082153,1788.163818 1171.648560,1785.050903 
M586.027527,1783.533081 
	C592.392090,1784.688110 598.726379,1786.591675 605.127136,1786.850098 
	C620.849609,1787.484497 636.543396,1787.283447 651.768433,1782.052124 
	C665.370178,1777.378662 676.843140,1769.936768 685.276245,1758.190063 
	C693.535461,1746.685425 697.583679,1733.352783 697.726013,1719.609619 
	C697.953491,1697.639771 700.031006,1675.520142 695.945068,1653.670288 
	C693.683105,1641.574585 688.687866,1630.644043 680.093323,1621.614014 
	C664.341309,1605.063843 644.055847,1599.052856 622.170715,1598.241455 
	C611.485474,1597.845337 600.474731,1598.932495 590.011230,1601.196533 
	C556.312439,1608.487793 535.164978,1633.780151 535.012573,1669.147705 
	C534.939392,1686.138916 534.933838,1703.131104 535.051575,1720.121704 
	C535.077515,1723.863892 535.397461,1727.680054 536.197144,1731.327393 
	C539.393494,1745.906494 545.468445,1758.943481 557.237305,1768.739746 
	C565.520569,1775.634521 574.592834,1780.974609 586.027527,1783.533081 
M963.004272,1736.463013 
	C963.669495,1732.646118 964.799316,1728.842529 964.908691,1725.009766 
	C965.184387,1715.354736 964.749817,1705.678589 965.065125,1696.026001 
	C965.436035,1684.668457 958.725952,1678.239746 946.919312,1678.047974 
	C933.927917,1677.836914 920.923889,1677.769409 907.939697,1678.141479 
	C904.079285,1678.252197 899.879456,1679.353760 896.507812,1681.217896 
	C887.413940,1686.245850 884.449463,1694.644775 884.948120,1704.708252 
	C885.259949,1711.001465 886.930359,1712.982788 893.104065,1712.993896 
	C904.766052,1713.015015 916.428101,1712.993896 928.090088,1713.009033 
	C929.253784,1713.010620 930.417419,1713.140991 932.927673,1713.293213 
	C924.603882,1716.330933 921.006897,1721.613037 918.940613,1728.486328 
	C916.098145,1737.942017 909.529663,1744.093750 899.935974,1745.823242 
	C893.035034,1747.067383 885.713196,1747.608643 878.809631,1746.703979 
	C873.017395,1745.944824 866.822388,1743.660767 862.106812,1740.251953 
	C852.654663,1733.419189 851.626953,1722.290283 851.144348,1711.752197 
	C850.542969,1698.618286 850.873047,1685.433960 851.078735,1672.275757 
	C851.138977,1668.424805 851.981750,1664.555664 852.747742,1660.751709 
	C855.387085,1647.644775 864.086548,1640.858643 876.761597,1639.210205 
	C888.054321,1637.741577 904.373657,1640.742188 909.931946,1654.987183 
	C911.652100,1659.395630 915.313354,1660.757568 919.030823,1660.862305 
	C931.682312,1661.219116 944.353027,1661.154785 957.010315,1660.923218 
	C962.220947,1660.827881 965.422485,1657.367432 964.971558,1653.007324 
	C963.486023,1638.643677 956.291565,1627.136963 945.465759,1618.294922 
	C927.886841,1603.936890 906.661194,1599.399048 884.650757,1599.246216 
	C873.511963,1599.169067 862.121155,1600.658447 851.250793,1603.187134 
	C818.677002,1610.764526 801.570984,1634.822876 800.226990,1665.666138 
	C799.354492,1685.688599 800.253418,1705.824341 801.135376,1725.875122 
	C801.797302,1740.921997 808.165649,1754.136475 818.543030,1764.851685 
	C833.167114,1779.951904 852.218750,1785.503662 872.523682,1786.876099 
	C885.141235,1787.728760 897.793762,1787.110474 910.228210,1784.031128 
	C936.007629,1777.647095 954.927856,1763.640137 963.004272,1736.463013 
M443.000000,1772.362061 
	C443.000000,1765.033691 443.011566,1757.705200 442.996613,1750.376831 
	C442.983246,1743.833008 441.129211,1742.005615 434.482605,1742.003052 
	C412.830505,1741.994873 391.178375,1742.000000 369.526276,1742.000000 
	C361.014038,1742.000000 358.000549,1739.026001 358.000366,1730.616455 
	C357.999542,1689.810547 358.003418,1649.004639 357.995728,1608.198730 
	C357.994720,1602.957275 356.124969,1601.023560 351.043335,1601.006348 
	C343.715027,1600.981567 336.385315,1601.085205 329.058441,1600.979492 
	C319.003448,1600.834351 307.866058,1611.635986 307.908478,1622.183228 
	C308.112183,1672.815063 307.999939,1723.448120 308.000061,1774.080811 
	C308.000092,1781.562988 310.428833,1783.998291 317.921448,1783.998779 
	C356.062469,1784.001465 394.203522,1784.000244 432.344543,1784.000000 
	C440.849579,1783.999878 442.999756,1781.843018 443.000000,1772.362061 
M365.042999,1906.699341 
	C363.931824,1911.857422 362.820648,1917.015503 361.709503,1922.173706 
	C360.112274,1920.248047 359.790466,1918.545166 359.410248,1916.855469 
	C355.944794,1901.455078 352.522125,1886.044312 348.905914,1870.679199 
	C348.581329,1869.300171 347.028381,1867.209717 345.972656,1867.164551 
	C338.723083,1866.854492 331.453979,1867.001709 324.297913,1867.001709 
	C324.297913,1892.997559 324.297913,1918.397827 324.297913,1943.695557 
	C329.338196,1943.695557 334.075836,1943.695557 339.192688,1943.695557 
	C339.192688,1924.756348 339.192688,1906.118896 339.192688,1887.026489 
	C340.010162,1887.718506 340.621857,1887.972656 340.700256,1888.340454 
	C344.163727,1904.590454 347.677429,1920.830811 350.940216,1937.121582 
	C351.864929,1941.738281 353.020172,1945.234985 358.882660,1944.066406 
	C360.965973,1943.651245 363.219727,1943.822510 365.363373,1944.041748 
	C368.525879,1944.365479 369.452179,1942.854492 370.069641,1939.969971 
	C374.037506,1921.434570 378.213837,1902.943726 382.321747,1884.438232 
	C382.556946,1884.461426 382.792175,1884.484619 383.027374,1884.507812 
	C383.027374,1904.209229 383.027374,1923.910645 383.027374,1943.789551 
	C388.146576,1943.789551 392.882874,1943.789551 397.788910,1943.789551 
	C397.788910,1918.179565 397.788910,1892.780273 397.788910,1867.190674 
	C389.814240,1867.190674 382.050018,1867.190674 374.129761,1867.190674 
	C372.732544,1873.758911 371.402710,1880.225098 369.973389,1886.669189 
	C368.542969,1893.117798 367.013153,1899.544312 365.042999,1906.699341 
M637.016235,1898.002197 
	C640.378418,1905.801147 647.507751,1908.081299 654.803040,1909.969116 
	C661.799438,1911.779663 668.966736,1913.007935 675.833557,1915.198364 
	C678.233276,1915.963989 681.180176,1918.574097 681.658203,1920.815063 
	C682.148376,1923.112671 680.676880,1926.959961 678.759338,1928.448975 
	C669.172607,1935.893433 653.346252,1930.506958 650.289001,1919.153076 
	C644.989075,1919.153076 639.689148,1919.153076 634.395691,1919.153076 
	C634.154358,1929.694946 639.843201,1939.670410 650.423706,1942.913208 
	C661.071960,1946.176758 671.948425,1946.360840 682.672180,1942.970215 
	C699.232910,1937.734009 701.747437,1919.177490 694.879272,1907.996704 
	C691.284241,1902.144409 684.463074,1900.741211 678.276245,1899.057861 
	C671.147888,1897.118652 663.832092,1895.855957 656.733337,1893.825073 
	C651.528931,1892.336060 649.673401,1885.904663 653.329468,1882.419189 
	C658.902954,1877.105957 675.979980,1876.646606 679.155212,1887.206177 
	C679.500671,1888.355225 681.211853,1889.790894 682.375732,1889.873047 
	C686.815491,1890.186157 691.290527,1889.999268 695.663635,1889.999268 
	C697.273071,1881.345825 689.587646,1869.302490 680.603271,1867.204590 
	C673.538574,1865.554932 665.964233,1864.572266 658.787354,1865.212158 
	C639.743103,1866.910767 632.683899,1879.280518 637.016235,1898.002197 
M533.000244,1869.684082 
	C532.666870,1886.406982 532.287537,1903.129028 532.029053,1919.853149 
	C531.954651,1924.667603 529.317383,1928.263062 525.411255,1929.609985 
	C520.353577,1931.354004 514.793091,1932.552979 509.747589,1928.342773 
	C504.777496,1924.195679 504.259216,1918.478149 504.109283,1912.909302 
	C503.764496,1900.101562 504.000000,1887.278198 504.000000,1874.461182 
	C504.000000,1872.035278 504.000000,1869.609375 504.000000,1867.303711 
	C497.989075,1867.303711 492.588501,1867.303711 487.000671,1867.303711 
	C487.000671,1884.899536 486.229462,1902.238647 487.257477,1919.470215 
	C488.009033,1932.067505 491.769348,1939.545288 506.001526,1943.782227 
	C511.200897,1945.330200 517.068298,1945.037842 522.618286,1944.930420 
	C540.681152,1944.580933 549.438843,1934.031738 549.903687,1917.734375 
	C550.349609,1902.100342 550.007141,1886.443604 549.986511,1870.796875 
	C549.984863,1869.544556 549.791748,1868.292480 549.684265,1867.000244 
	C544.782104,1867.000244 540.285950,1866.903320 535.800415,1867.078369 
	C534.848633,1867.115479 533.935547,1868.145386 533.000244,1869.684082 
M935.080688,1889.553833 
	C935.948425,1890.366821 936.786377,1891.842285 937.688782,1891.882690 
	C942.763245,1892.110352 947.853271,1891.992554 953.229858,1891.992554 
	C952.369873,1882.997070 948.635132,1876.214844 942.178345,1871.057373 
	C933.281860,1863.950806 922.487000,1863.749512 912.236877,1865.286743 
	C899.722717,1867.163696 891.100281,1875.078491 887.007385,1887.377563 
	C884.082092,1896.168213 883.404236,1905.041138 884.886963,1914.276489 
	C886.175598,1922.302856 888.781189,1929.506836 894.149536,1935.641602 
	C903.559631,1946.394775 922.299011,1946.947510 933.707397,1943.058594 
	C945.981506,1938.874512 953.603577,1924.103271 952.735229,1916.199219 
	C947.309326,1916.199219 941.859619,1916.199219 936.303711,1916.199219 
	C936.127136,1917.000366 935.980774,1917.779541 935.782593,1918.545288 
	C933.769836,1926.322144 928.048950,1930.384521 920.722168,1930.768921 
	C913.534729,1931.145752 907.864868,1927.468994 904.733215,1920.346436 
	C900.573669,1910.886353 900.857117,1901.370850 903.747375,1891.798828 
	C906.184082,1883.729004 912.253174,1879.299561 920.307312,1879.224609 
	C926.647339,1879.165405 932.782471,1881.449951 935.080688,1889.553833 
M783.000305,1940.318481 
	C783.779663,1941.211670 784.517090,1942.829346 785.345337,1942.877319 
	C789.777893,1943.133423 794.233032,1942.998169 798.766968,1942.998169 
	C798.766968,1917.465942 798.766968,1892.400635 798.766968,1867.238770 
	C793.461060,1867.238770 788.391113,1867.238770 783.000000,1867.238770 
	C783.000000,1891.432495 783.000000,1915.388916 783.000305,1940.318481 
z"/>
<path fill="#0C0C0C" opacity="1.000000" stroke="none" 
	d="
M1347.000000,718.531372 
	C1346.333374,722.223694 1345.439697,725.419373 1345.038208,728.675781 
	C1342.964111,745.500000 1341.724243,762.461792 1338.852417,779.144714 
	C1334.856323,802.357788 1330.822754,825.677612 1324.683960,848.378113 
	C1317.993652,873.117859 1309.823364,897.568542 1300.546265,921.465088 
	C1291.896484,943.745056 1281.705322,965.519592 1270.825073,986.818115 
	C1255.632568,1016.558777 1238.350708,1045.173706 1217.782715,1071.578125 
	C1203.357056,1090.097168 1188.347534,1108.173706 1173.220825,1126.129517 
	C1165.253418,1135.586914 1157.037964,1144.974731 1147.944336,1153.314331 
	C1129.937256,1169.828735 1111.433472,1185.818604 1092.786133,1201.613647 
	C1067.420288,1223.099487 1039.802612,1241.530029 1010.908325,1257.776245 
	C988.217468,1270.534302 964.894531,1282.431519 940.981812,1292.679688 
	C916.705322,1303.083496 891.651672,1311.939331 866.396973,1319.714600 
	C844.596069,1326.426514 822.105469,1330.991821 799.783142,1335.882324 
	C786.188049,1338.860718 772.370178,1340.909058 758.582703,1342.889893 
	C750.320801,1344.076904 741.935791,1344.581787 733.586548,1344.953125 
	C708.166748,1346.083618 682.741821,1347.597168 657.310181,1347.787476 
	C640.726074,1347.911621 624.097656,1346.325684 607.543579,1344.881470 
	C594.579163,1343.750610 581.557190,1342.373657 568.810608,1339.845825 
	C543.830261,1334.891479 518.908386,1329.530396 494.176270,1323.465332 
	C465.607849,1316.459229 437.950470,1306.377441 410.983185,1294.768311 
	C391.054352,1286.189087 371.515594,1276.482788 352.562988,1265.915771 
	C331.347351,1254.087036 310.667877,1241.209106 290.368652,1227.855225 
	C276.579926,1218.784180 263.446289,1208.590210 250.744797,1198.026489 
	C235.212418,1185.108398 220.102173,1171.633301 205.437637,1157.736084 
	C192.643677,1145.611572 179.902252,1133.253174 168.608124,1119.766602 
	C152.040802,1099.983032 136.582458,1079.254150 121.026047,1058.645386 
	C105.349930,1037.878052 92.532852,1015.279480 80.095123,992.480225 
	C58.940773,953.702698 42.212513,913.016357 29.566389,870.768005 
	C22.698772,847.824463 17.331211,824.393188 12.213294,800.979431 
	C9.203338,787.209229 7.825524,773.065369 6.058526,759.046082 
	C4.750023,748.664368 4.020490,738.210205 2.955514,727.796326 
	C2.865626,726.917358 2.187504,726.098572 1.391327,725.125916 
	C1.000000,724.555542 1.000000,724.111084 1.399354,723.174438 
	C1.532471,719.121521 1.266234,715.560730 0.999999,712.000000 
	C1.000000,687.312439 1.000000,662.624878 1.399355,637.309814 
	C1.532472,633.121521 1.266235,629.560730 0.999999,626.000000 
	C1.000000,625.555542 1.000000,625.111084 1.391313,624.207397 
	C2.188414,621.900269 2.775961,620.070984 2.967664,618.201172 
	C3.691354,611.142456 4.286411,604.070496 4.944228,596.843018 
	C116.390602,596.843018 227.001114,596.843018 337.629120,596.843018 
	C337.629120,495.098877 337.629120,393.612610 337.629120,292.085693 
	C336.936523,292.147949 336.488190,292.049011 336.312683,292.223907 
	C324.482941,304.010529 312.267853,315.444916 300.979004,327.730255 
	C289.480103,340.244232 278.542480,353.318665 267.988556,366.646179 
	C250.618164,388.581543 235.698578,412.163574 223.048935,437.136475 
	C221.286194,440.616455 219.275787,442.113617 215.147461,442.102386 
	C159.149033,441.950012 103.150055,442.000000 47.151211,442.000000 
	C45.512943,442.000000 43.874676,442.000000 41.024418,442.000000 
	C48.877193,423.621521 56.098003,405.810120 64.047066,388.329895 
	C76.264984,361.462433 90.754524,335.774170 106.663437,310.941650 
	C127.036636,279.140686 150.006470,249.238251 175.394455,221.287750 
	C186.388428,209.184143 198.202698,197.787750 210.102371,186.555328 
	C222.050201,175.277451 234.171524,164.113129 246.937820,153.790726 
	C262.309784,141.361450 277.998108,129.215424 294.366272,118.155586 
	C311.822845,106.360291 329.837677,95.251228 348.331451,85.167969 
	C369.350159,73.708023 390.710968,62.621708 412.766296,53.386795 
	C435.797668,43.743217 459.680603,36.023602 483.483124,28.370682 
	C498.921265,23.407057 514.734985,19.320831 530.645813,16.190332 
	C551.472046,12.092716 572.499207,8.853606 593.555237,6.139307 
	C609.798096,4.045466 626.219788,3.345402 642.557495,1.972390 
	C644.054993,1.846544 645.519958,1.333338 647.000000,1.000002 
	C664.687561,1.000000 682.375122,1.000000 700.701050,1.407111 
	C712.671875,2.542369 724.028809,3.007841 735.330688,4.063236 
	C750.437622,5.473950 765.606689,6.707442 780.557312,9.177546 
	C798.540588,12.148698 816.416199,15.938356 834.169861,20.093519 
	C862.025269,26.612925 889.501404,34.722393 915.915039,45.670948 
	C940.811218,55.990543 965.375854,67.255478 989.442993,79.381447 
	C1007.087158,88.271255 1024.020264,98.713730 1040.659424,109.414093 
	C1055.336304,118.852470 1069.486938,129.193954 1083.287231,139.888443 
	C1098.755615,151.875656 1113.963135,164.267303 1128.545288,177.309158 
	C1140.603638,188.093765 1151.855225,199.827118 1162.969116,211.607300 
	C1173.671753,222.951538 1184.123779,234.580795 1193.986450,246.656174 
	C1205.694336,260.990692 1217.309692,275.484131 1227.808594,290.706451 
	C1252.351074,326.290497 1274.005737,363.626587 1290.739502,403.549011 
	C1299.718140,424.970123 1307.679810,446.853973 1315.238892,468.825348 
	C1327.177979,503.527435 1335.258057,539.211792 1339.971558,575.615906 
	C1341.898804,590.500244 1343.285034,605.454041 1345.051147,620.360352 
	C1345.357666,622.947571 1346.333496,625.455444 1347.000000,628.000000 
	C1347.000000,658.020874 1347.000000,688.041809 1347.000000,718.531372 
M680.500000,164.999985 
	C662.496460,165.666412 644.462341,165.893173 626.499268,167.141571 
	C612.703247,168.100372 598.870483,169.662170 585.277771,172.168884 
	C560.428101,176.751541 535.902954,182.792801 511.877930,190.815857 
	C507.345520,192.329422 505.877563,193.969131 505.881927,198.787231 
	C506.024933,356.278534 505.965454,513.769958 506.085480,671.261353 
	C506.092712,680.760742 507.110077,690.281189 508.047821,699.753113 
	C509.520508,714.628723 514.016357,728.770447 520.127869,742.294067 
	C529.569397,763.186340 542.602539,781.539978 559.546753,797.219116 
	C573.746704,810.358826 589.382507,821.039673 607.158020,828.605591 
	C631.530823,838.979492 656.748962,843.986511 683.413635,842.158569 
	C700.225403,841.005981 716.383484,837.852783 732.175293,832.067383 
	C757.119934,822.928650 778.311157,808.457581 796.503906,789.127502 
	C811.037903,773.685059 822.065552,756.238464 830.087463,736.679504 
	C837.490417,718.629761 841.618652,699.897888 841.858398,680.470215 
	C841.987854,669.979858 840.923340,659.447693 839.945007,648.976685 
	C838.289856,631.261902 832.311707,614.678223 824.310242,599.055603 
	C814.556152,580.010986 802.394958,562.419067 785.348816,548.997742 
	C775.196167,541.004028 764.926758,532.868103 753.713196,526.570923 
	C728.068909,512.170105 700.111145,505.777496 670.686707,506.034424 
	C667.202332,506.064850 663.722107,506.567963 660.299683,506.847076 
	C660.299683,450.682068 660.299683,394.942383 660.299683,339.100250 
	C683.007385,338.808319 705.434021,338.243286 727.537659,343.012146 
	C742.181152,346.171509 756.952209,348.914276 771.367554,352.918793 
	C797.345581,360.135437 821.761475,371.201019 844.945923,384.983978 
	C864.529358,396.626251 883.037476,409.801605 899.667236,425.343658 
	C915.797852,440.419250 930.878235,456.492157 944.051392,474.374573 
	C963.499634,500.775299 978.851074,529.259705 990.011108,560.037109 
	C997.613525,581.003052 1003.405090,602.446655 1005.980530,624.648743 
	C1007.505737,637.796936 1009.187744,650.961670 1009.833740,664.166138 
	C1010.333313,674.378296 1009.596741,684.680969 1008.924927,694.911621 
	C1008.272217,704.851685 1007.173950,714.772095 1005.965759,724.663879 
	C1003.808533,742.324646 999.559448,759.524597 994.186707,776.473877 
	C986.478638,800.790100 976.047119,823.825195 963.107605,845.831909 
	C951.624634,865.361389 938.338501,883.552368 923.088745,900.166870 
	C908.389526,916.181335 892.346191,930.818176 874.811646,943.888184 
	C847.047485,964.583069 816.819946,980.449219 784.282349,991.917419 
	C765.422791,998.564636 746.111755,1003.761230 726.141174,1006.022766 
	C714.306763,1007.362976 702.493530,1009.425598 690.627014,1009.808533 
	C676.067200,1010.278259 661.447754,1009.619263 646.881042,1008.901123 
	C636.939392,1008.410950 626.895813,1007.736023 617.158447,1005.819397 
	C596.653625,1001.783325 576.336914,996.927917 556.713806,989.403687 
	C536.977783,981.836243 518.022888,972.749695 499.888672,961.956909 
	C481.430603,950.971375 464.275848,938.107300 448.412506,923.687744 
	C438.860321,915.004944 429.955200,905.519470 421.479736,895.768494 
	C412.853149,885.843811 404.719208,875.430481 397.070282,864.730286 
	C385.056305,847.923706 375.288971,829.811218 366.887360,810.894348 
	C359.036621,793.217712 352.733887,775.063599 348.133057,756.326233 
	C347.281464,752.858215 346.035736,751.934387 342.684906,751.939453 
	C286.521423,752.024231 230.357773,751.997864 174.194168,752.012634 
	C172.809311,752.013000 171.424500,752.201111 169.740173,752.323486 
	C170.256531,754.053040 170.699112,755.262939 170.977783,756.509460 
	C175.759094,777.895508 179.470978,799.587952 185.519836,820.608276 
	C195.814560,856.383179 210.668701,890.397583 228.949127,922.897827 
	C243.812393,949.322937 260.581177,974.391418 280.076996,997.643555 
	C294.147919,1014.425659 308.193787,1031.209961 324.967346,1045.435425 
	C339.805481,1058.019409 354.450317,1070.848877 369.633575,1083.004150 
	C390.476929,1099.690796 413.318207,1113.466919 436.905457,1125.815552 
	C452.679962,1134.073975 468.984039,1141.527222 485.596954,1147.922974 
	C504.282959,1155.116943 523.333435,1161.665771 542.684509,1166.746460 
	C562.480469,1171.944214 582.751404,1175.513062 602.968323,1178.867554 
	C617.921570,1181.348755 633.104309,1183.509277 648.215454,1183.731201 
	C671.872070,1184.078613 695.578003,1183.103638 719.216797,1181.830078 
	C732.348572,1181.122681 745.526672,1179.387085 758.435181,1176.849731 
	C779.607971,1172.687988 800.891663,1168.565186 821.565674,1162.505615 
	C859.296936,1151.446289 895.282654,1135.812622 929.217346,1115.880493 
	C955.501343,1100.442261 980.834106,1083.477417 1003.476807,1062.920044 
	C1017.723145,1049.985840 1031.925537,1036.925781 1045.188110,1023.007690 
	C1057.590576,1009.992554 1069.073242,996.048950 1080.338501,982.014648 
	C1096.235596,962.210205 1109.746216,940.695679 1121.700195,918.361816 
	C1131.019897,900.949524 1139.525269,882.979187 1146.790527,864.622803 
	C1154.511108,845.116089 1160.998657,825.051453 1166.827515,804.884460 
	C1173.482056,781.860413 1177.929321,758.290649 1180.016235,734.346802 
	C1181.353394,719.005859 1183.332764,703.685608 1183.849976,688.316528 
	C1184.688232,663.407532 1183.496216,638.526306 1180.018677,613.795532 
	C1178.568604,603.482727 1177.904175,593.022766 1175.845337,582.839355 
	C1170.745972,557.614807 1165.138672,532.446960 1155.885986,508.364655 
	C1148.180786,488.309875 1140.333984,468.237030 1131.114868,448.854767 
	C1119.689453,424.834259 1105.725464,402.204987 1090.291138,380.432678 
	C1076.101318,360.416107 1060.521973,341.617065 1043.946411,323.627106 
	C1036.323853,315.354095 1027.941284,307.750610 1019.597839,300.180328 
	C1009.274475,290.813690 999.028992,281.289368 988.047363,272.735016 
	C965.493225,255.166183 941.645508,239.462769 916.454895,225.867615 
	C891.791992,212.557281 866.347107,200.853165 839.715698,192.216019 
	C820.026672,185.830429 799.916931,180.436371 779.662109,176.185028 
	C758.736694,171.792938 737.469482,168.832458 716.233887,166.194031 
	C704.783264,164.771332 693.085999,165.333405 680.500000,164.999985 
z"/>
<path fill="#FFFFFF" opacity="1.000000" stroke="none" 
	d="
M646.531372,1.000002 
	C645.519958,1.333338 644.054993,1.846544 642.557495,1.972390 
	C626.219788,3.345402 609.798096,4.045466 593.555237,6.139307 
	C572.499207,8.853606 551.472046,12.092716 530.645813,16.190332 
	C514.734985,19.320831 498.921265,23.407057 483.483124,28.370682 
	C459.680603,36.023602 435.797668,43.743217 412.766296,53.386795 
	C390.710968,62.621708 369.350159,73.708023 348.331451,85.167969 
	C329.837677,95.251228 311.822845,106.360291 294.366272,118.155586 
	C277.998108,129.215424 262.309784,141.361450 246.937820,153.790726 
	C234.171524,164.113129 222.050201,175.277451 210.102371,186.555328 
	C198.202698,197.787750 186.388428,209.184143 175.394455,221.287750 
	C150.006470,249.238251 127.036636,279.140686 106.663437,310.941650 
	C90.754524,335.774170 76.264984,361.462433 64.047066,388.329895 
	C56.098003,405.810120 48.877193,423.621521 41.024418,442.000000 
	C43.874676,442.000000 45.512943,442.000000 47.151211,442.000000 
	C103.150055,442.000000 159.149033,441.950012 215.147461,442.102386 
	C219.275787,442.113617 221.286194,440.616455 223.048935,437.136475 
	C235.698578,412.163574 250.618164,388.581543 267.988556,366.646179 
	C278.542480,353.318665 289.480103,340.244232 300.979004,327.730255 
	C312.267853,315.444916 324.482941,304.010529 336.312683,292.223907 
	C336.488190,292.049011 336.936523,292.147949 337.629120,292.085693 
	C337.629120,393.612610 337.629120,495.098877 337.629120,596.843018 
	C227.001114,596.843018 116.390602,596.843018 4.944228,596.843018 
	C4.286411,604.070496 3.691354,611.142456 2.967664,618.201172 
	C2.775961,620.070984 2.188414,621.900269 1.391313,623.874084 
	C1.000000,416.404907 1.000000,208.809830 1.000000,1.000000 
	C216.020844,1.000000 431.041779,1.000000 646.531372,1.000002 
z"/>
<path fill="#FFFFFF" opacity="1.000000" stroke="none" 
	d="
M1347.000000,627.531372 
	C1346.333496,625.455444 1345.357666,622.947571 1345.051147,620.360352 
	C1343.285034,605.454041 1341.898804,590.500244 1339.971558,575.615906 
	C1335.258057,539.211792 1327.177979,503.527435 1315.238892,468.825348 
	C1307.679810,446.853973 1299.718140,424.970123 1290.739502,403.549011 
	C1274.005737,363.626587 1252.351074,326.290497 1227.808594,290.706451 
	C1217.309692,275.484131 1205.694336,260.990692 1193.986450,246.656174 
	C1184.123779,234.580795 1173.671753,222.951538 1162.969116,211.607300 
	C1151.855225,199.827118 1140.603638,188.093765 1128.545288,177.309158 
	C1113.963135,164.267303 1098.755615,151.875656 1083.287231,139.888443 
	C1069.486938,129.193954 1055.336304,118.852470 1040.659424,109.414093 
	C1024.020264,98.713730 1007.087158,88.271255 989.442993,79.381447 
	C965.375854,67.255478 940.811218,55.990543 915.915039,45.670948 
	C889.501404,34.722393 862.025269,26.612925 834.169861,20.093519 
	C816.416199,15.938356 798.540588,12.148698 780.557312,9.177546 
	C765.606689,6.707442 750.437622,5.473950 735.330688,4.063236 
	C724.028809,3.007841 712.671875,2.542369 701.169678,1.407111 
	C916.259338,1.000000 1131.518677,1.000000 1347.000000,1.000000 
	C1347.000000,209.687515 1347.000000,418.375092 1347.000000,627.531372 
z"/>
<path fill="#FFFFFF" opacity="1.000000" stroke="none" 
	d="
M0.999999,712.457886 
	C1.266234,715.560730 1.532471,719.121521 1.399354,722.841125 
	C1.000000,719.638550 1.000000,716.277161 0.999999,712.457886 
z"/>
<path fill="#FFFFFF" opacity="1.000000" stroke="none" 
	d="
M0.999999,626.457886 
	C1.266235,629.560730 1.532472,633.121521 1.399355,636.841125 
	C1.000000,633.638550 1.000000,630.277161 0.999999,626.457886 
z"/>
<path fill="#0C0C0C" opacity="1.000000" stroke="none" 
	d="
M53.329388,1784.000000 
	C46.519901,1783.672241 44.007332,1781.131958 44.006004,1774.896118 
	C43.995293,1724.575073 43.917877,1674.253906 44.057678,1623.933228 
	C44.092682,1611.333984 53.714455,1600.817993 67.213371,1600.937744 
	C91.872063,1601.156738 116.544838,1600.566528 141.190277,1601.178589 
	C153.960739,1601.495483 166.379425,1604.296753 177.455780,1611.720581 
	C188.093536,1618.850220 193.844803,1628.619629 196.035385,1640.967285 
	C198.021057,1652.160034 198.073669,1663.219238 191.837479,1673.070923 
	C188.290771,1678.673950 183.263855,1683.340210 179.329681,1687.931030 
	C183.328766,1691.901001 188.801544,1696.063232 192.658234,1701.394775 
	C205.541565,1719.204468 203.145966,1746.117065 190.311371,1762.264648 
	C180.883957,1774.125244 168.150406,1779.940063 153.749817,1781.883179 
	C120.543472,1786.363403 87.110016,1783.057129 53.329388,1784.000000 
M129.340759,1747.000000 
	C134.927109,1747.676270 139.598755,1745.609253 143.541809,1741.899780 
	C148.903763,1736.855347 150.616653,1727.389038 147.705536,1720.201904 
	C144.819519,1713.076782 137.501740,1708.035156 129.914627,1708.006470 
	C122.261055,1707.977417 114.607285,1708.000000 106.953598,1708.000000 
	C100.427124,1708.000000 93.900650,1708.000000 85.865639,1708.000000 
	C93.344528,1713.056641 94.570274,1719.179077 94.056175,1726.120117 
	C93.749771,1730.257080 93.953300,1734.435791 94.011520,1738.594727 
	C94.089012,1744.130493 96.980202,1746.991455 102.423134,1746.997559 
	C111.075119,1747.007202 119.727127,1747.000000 129.340759,1747.000000 
M135.887436,1670.635254 
	C146.043076,1665.625366 145.853577,1657.797729 144.889404,1649.227905 
	C144.243866,1643.489990 136.801102,1637.263550 130.080643,1637.104614 
	C115.885452,1636.768799 101.676788,1637.002319 85.928909,1637.002319 
	C94.138924,1642.412720 94.532135,1649.462402 94.026794,1656.863403 
	C93.857391,1659.344360 93.798882,1661.866577 94.042900,1664.335083 
	C94.526642,1669.227905 97.290192,1673.447510 102.882195,1673.105347 
	C110.000969,1672.669800 117.175934,1673.217041 124.308136,1672.909912 
	C127.948883,1672.753052 131.549149,1671.655884 135.887436,1670.635254 
z"/>
<path fill="#0C0C0C" opacity="1.000000" stroke="none" 
	d="
M1171.290894,1785.317261 
	C1152.082153,1788.163818 1133.254028,1788.239258 1115.008301,1782.402100 
	C1089.769287,1774.327881 1074.409668,1756.888428 1069.094116,1730.874756 
	C1068.247559,1726.731201 1068.076904,1722.397583 1068.046875,1718.148560 
	C1067.931274,1701.825439 1067.918579,1685.500366 1068.016602,1669.177002 
	C1068.229614,1633.728638 1088.961914,1608.988037 1122.485596,1601.234985 
	C1133.055176,1598.790527 1144.281250,1597.847534 1155.133057,1598.243042 
	C1177.014526,1599.040405 1197.369263,1604.978638 1213.041992,1621.604980 
	C1223.392944,1632.585571 1229.098633,1645.925293 1229.856812,1660.851929 
	C1230.790161,1679.228516 1231.220337,1697.669922 1230.851440,1716.062988 
	C1230.444946,1736.337280 1224.661377,1754.872803 1208.689575,1768.736816 
	C1198.079956,1777.946045 1185.525269,1783.084961 1171.290894,1785.317261 
M1169.053589,1645.567871 
	C1161.770020,1639.231812 1153.504272,1637.378540 1143.929077,1638.878418 
	C1132.888794,1640.607544 1125.452271,1646.304443 1122.105469,1656.785034 
	C1120.453491,1661.958130 1119.192749,1667.507080 1119.153687,1672.896118 
	C1119.044800,1687.957886 1119.335815,1703.041504 1120.092651,1718.085083 
	C1120.819214,1732.527710 1127.084229,1743.431152 1144.358643,1746.698975 
	C1155.323120,1748.772949 1171.867920,1742.830200 1176.387085,1729.601074 
	C1179.632935,1720.098999 1178.907715,1710.546021 1179.694214,1701.097534 
	C1180.648804,1689.631470 1179.718384,1677.947876 1178.863403,1666.413086 
	C1178.293091,1658.720215 1175.848267,1651.388184 1169.053589,1645.567871 
z"/>
<path fill="#0C0C0C" opacity="1.000000" stroke="none" 
	d="
M585.679382,1783.289307 
	C574.592834,1780.974609 565.520569,1775.634521 557.237305,1768.739746 
	C545.468445,1758.943481 539.393494,1745.906494 536.197144,1731.327393 
	C535.397461,1727.680054 535.077515,1723.863892 535.051575,1720.121704 
	C534.933838,1703.131104 534.939392,1686.138916 535.012573,1669.147705 
	C535.164978,1633.780151 556.312439,1608.487793 590.011230,1601.196533 
	C600.474731,1598.932495 611.485474,1597.845337 622.170715,1598.241455 
	C644.055847,1599.052856 664.341309,1605.063843 680.093323,1621.614014 
	C688.687866,1630.644043 693.683105,1641.574585 695.945068,1653.670288 
	C700.031006,1675.520142 697.953491,1697.639771 697.726013,1719.609619 
	C697.583679,1733.352783 693.535461,1746.685425 685.276245,1758.190063 
	C676.843140,1769.936768 665.370178,1777.378662 651.768433,1782.052124 
	C636.543396,1787.283447 620.849609,1787.484497 605.127136,1786.850098 
	C598.726379,1786.591675 592.392090,1784.688110 585.679382,1783.289307 
M627.170959,1640.027954 
	C621.515442,1638.666870 616.010620,1637.330933 609.988525,1638.872314 
	C603.182312,1640.614380 597.336975,1643.220215 592.938110,1648.995850 
	C587.510864,1656.121582 586.422791,1664.580933 586.206848,1672.817627 
	C585.812378,1687.860107 586.363342,1702.949707 587.084961,1717.992554 
	C587.764648,1732.160156 593.816956,1743.340698 611.261414,1746.672852 
	C621.920349,1748.708740 639.882507,1743.651001 643.197693,1729.174072 
	C645.214355,1720.367676 646.695374,1711.238770 646.787476,1702.238037 
	C646.928650,1688.437378 646.390320,1674.535522 644.752380,1660.842651 
	C643.592773,1651.148438 637.300110,1644.104492 627.170959,1640.027954 
z"/>
<path fill="#0C0C0C" opacity="1.000000" stroke="none" 
	d="
M963.001221,1736.888184 
	C954.927856,1763.640137 936.007629,1777.647095 910.228210,1784.031128 
	C897.793762,1787.110474 885.141235,1787.728760 872.523682,1786.876099 
	C852.218750,1785.503662 833.167114,1779.951904 818.543030,1764.851685 
	C808.165649,1754.136475 801.797302,1740.921997 801.135376,1725.875122 
	C800.253418,1705.824341 799.354492,1685.688599 800.226990,1665.666138 
	C801.570984,1634.822876 818.677002,1610.764526 851.250793,1603.187134 
	C862.121155,1600.658447 873.511963,1599.169067 884.650757,1599.246216 
	C906.661194,1599.399048 927.886841,1603.936890 945.465759,1618.294922 
	C956.291565,1627.136963 963.486023,1638.643677 964.971558,1653.007324 
	C965.422485,1657.367432 962.220947,1660.827881 957.010315,1660.923218 
	C944.353027,1661.154785 931.682312,1661.219116 919.030823,1660.862305 
	C915.313354,1660.757568 911.652100,1659.395630 909.931946,1654.987183 
	C904.373657,1640.742188 888.054321,1637.741577 876.761597,1639.210205 
	C864.086548,1640.858643 855.387085,1647.644775 852.747742,1660.751709 
	C851.981750,1664.555664 851.138977,1668.424805 851.078735,1672.275757 
	C850.873047,1685.433960 850.542969,1698.618286 851.144348,1711.752197 
	C851.626953,1722.290283 852.654663,1733.419189 862.106812,1740.251953 
	C866.822388,1743.660767 873.017395,1745.944824 878.809631,1746.703979 
	C885.713196,1747.608643 893.035034,1747.067383 899.935974,1745.823242 
	C909.529663,1744.093750 916.098145,1737.942017 918.940613,1728.486328 
	C921.006897,1721.613037 924.603882,1716.330933 932.927673,1713.293213 
	C930.417419,1713.140991 929.253784,1713.010620 928.090088,1713.009033 
	C916.428101,1712.993896 904.766052,1713.015015 893.104065,1712.993896 
	C886.930359,1712.982788 885.259949,1711.001465 884.948120,1704.708252 
	C884.449463,1694.644775 887.413940,1686.245850 896.507812,1681.217896 
	C899.879456,1679.353760 904.079285,1678.252197 907.939697,1678.141479 
	C920.923889,1677.769409 933.927917,1677.836914 946.919312,1678.047974 
	C958.725952,1678.239746 965.436035,1684.668457 965.065125,1696.026001 
	C964.749817,1705.678589 965.184387,1715.354736 964.908691,1725.009766 
	C964.799316,1728.842529 963.669495,1732.646118 963.001221,1736.888184 
z"/>
<path fill="#0C0C0C" opacity="1.000000" stroke="none" 
	d="
M443.000000,1772.838989 
	C442.999756,1781.843018 440.849579,1783.999878 432.344543,1784.000000 
	C394.203522,1784.000244 356.062469,1784.001465 317.921448,1783.998779 
	C310.428833,1783.998291 308.000092,1781.562988 308.000061,1774.080811 
	C307.999939,1723.448120 308.112183,1672.815063 307.908478,1622.183228 
	C307.866058,1611.635986 319.003448,1600.834351 329.058441,1600.979492 
	C336.385315,1601.085205 343.715027,1600.981567 351.043335,1601.006348 
	C356.124969,1601.023560 357.994720,1602.957275 357.995728,1608.198730 
	C358.003418,1649.004639 357.999542,1689.810547 358.000366,1730.616455 
	C358.000549,1739.026001 361.014038,1742.000000 369.526276,1742.000000 
	C391.178375,1742.000000 412.830505,1741.994873 434.482605,1742.003052 
	C441.129211,1742.005615 442.983246,1743.833008 442.996613,1750.376831 
	C443.011566,1757.705200 443.000000,1765.033691 443.000000,1772.838989 
z"/>
<path fill="#0C0C0C" opacity="1.000000" stroke="none" 
	d="
M365.284973,1906.339966 
	C367.013153,1899.544312 368.542969,1893.117798 369.973389,1886.669189 
	C371.402710,1880.225098 372.732544,1873.758911 374.129761,1867.190674 
	C382.050018,1867.190674 389.814240,1867.190674 397.788910,1867.190674 
	C397.788910,1892.780273 397.788910,1918.179565 397.788910,1943.789551 
	C392.882874,1943.789551 388.146576,1943.789551 383.027374,1943.789551 
	C383.027374,1923.910645 383.027374,1904.209229 383.027374,1884.507812 
	C382.792175,1884.484619 382.556946,1884.461426 382.321747,1884.438232 
	C378.213837,1902.943726 374.037506,1921.434570 370.069641,1939.969971 
	C369.452179,1942.854492 368.525879,1944.365479 365.363373,1944.041748 
	C363.219727,1943.822510 360.965973,1943.651245 358.882660,1944.066406 
	C353.020172,1945.234985 351.864929,1941.738281 350.940216,1937.121582 
	C347.677429,1920.830811 344.163727,1904.590454 340.700256,1888.340454 
	C340.621857,1887.972656 340.010162,1887.718506 339.192688,1887.026489 
	C339.192688,1906.118896 339.192688,1924.756348 339.192688,1943.695557 
	C334.075836,1943.695557 329.338196,1943.695557 324.297913,1943.695557 
	C324.297913,1918.397827 324.297913,1892.997559 324.297913,1867.001709 
	C331.453979,1867.001709 338.723083,1866.854492 345.972656,1867.164551 
	C347.028381,1867.209717 348.581329,1869.300171 348.905914,1870.679199 
	C352.522125,1886.044312 355.944794,1901.455078 359.410248,1916.855469 
	C359.790466,1918.545166 360.112274,1920.248047 361.709503,1922.173706 
	C362.820648,1917.015503 363.931824,1911.857422 365.284973,1906.339966 
z"/>
<path fill="#0C0C0C" opacity="1.000000" stroke="none" 
	d="
M637.002441,1897.587280 
	C632.683899,1879.280518 639.743103,1866.910767 658.787354,1865.212158 
	C665.964233,1864.572266 673.538574,1865.554932 680.603271,1867.204590 
	C689.587646,1869.302490 697.273071,1881.345825 695.663635,1889.999268 
	C691.290527,1889.999268 686.815491,1890.186157 682.375732,1889.873047 
	C681.211853,1889.790894 679.500671,1888.355225 679.155212,1887.206177 
	C675.979980,1876.646606 658.902954,1877.105957 653.329468,1882.419189 
	C649.673401,1885.904663 651.528931,1892.336060 656.733337,1893.825073 
	C663.832092,1895.855957 671.147888,1897.118652 678.276245,1899.057861 
	C684.463074,1900.741211 691.284241,1902.144409 694.879272,1907.996704 
	C701.747437,1919.177490 699.232910,1937.734009 682.672180,1942.970215 
	C671.948425,1946.360840 661.071960,1946.176758 650.423706,1942.913208 
	C639.843201,1939.670410 634.154358,1929.694946 634.395691,1919.153076 
	C639.689148,1919.153076 644.989075,1919.153076 650.289734,1919.146729 
	C653.346252,1930.506958 669.172607,1935.893433 678.759338,1928.448975 
	C680.676880,1926.959961 682.148376,1923.112671 681.658203,1920.815063 
	C681.180176,1918.574097 678.233276,1915.963989 675.833557,1915.198364 
	C668.966736,1913.007935 661.799438,1911.779663 654.803040,1909.969116 
	C647.507751,1908.081299 640.378418,1905.801147 637.002441,1897.587280 
z"/>
<path fill="#0C0C0C" opacity="1.000000" stroke="none" 
	d="
M533.002441,1869.201050 
	C533.935547,1868.145386 534.848633,1867.115479 535.800415,1867.078369 
	C540.285950,1866.903320 544.782104,1867.000244 549.684265,1867.000244 
	C549.791748,1868.292480 549.984863,1869.544556 549.986511,1870.796875 
	C550.007141,1886.443604 550.349609,1902.100342 549.903687,1917.734375 
	C549.438843,1934.031738 540.681152,1944.580933 522.618286,1944.930420 
	C517.068298,1945.037842 511.200897,1945.330200 506.001526,1943.782227 
	C491.769348,1939.545288 488.009033,1932.067505 487.257477,1919.470215 
	C486.229462,1902.238647 487.000671,1884.899536 487.000671,1867.303711 
	C492.588501,1867.303711 497.989075,1867.303711 504.000000,1867.303711 
	C504.000000,1869.609375 504.000000,1872.035278 504.000000,1874.461182 
	C504.000000,1887.278198 503.764496,1900.101562 504.109283,1912.909302 
	C504.259216,1918.478149 504.777496,1924.195679 509.747589,1928.342773 
	C514.793091,1932.552979 520.353577,1931.354004 525.411255,1929.609985 
	C529.317383,1928.263062 531.954651,1924.667603 532.029053,1919.853149 
	C532.287537,1903.129028 532.666870,1886.406982 533.002441,1869.201050 
z"/>
<path fill="#0C0C0C" opacity="1.000000" stroke="none" 
	d="
M935.042908,1889.145752 
	C932.782471,1881.449951 926.647339,1879.165405 920.307312,1879.224609 
	C912.253174,1879.299561 906.184082,1883.729004 903.747375,1891.798828 
	C900.857117,1901.370850 900.573669,1910.886353 904.733215,1920.346436 
	C907.864868,1927.468994 913.534729,1931.145752 920.722168,1930.768921 
	C928.048950,1930.384521 933.769836,1926.322144 935.782593,1918.545288 
	C935.980774,1917.779541 936.127136,1917.000366 936.303711,1916.199219 
	C941.859619,1916.199219 947.309326,1916.199219 952.735229,1916.199219 
	C953.603577,1924.103271 945.981506,1938.874512 933.707397,1943.058594 
	C922.299011,1946.947510 903.559631,1946.394775 894.149536,1935.641602 
	C888.781189,1929.506836 886.175598,1922.302856 884.886963,1914.276489 
	C883.404236,1905.041138 884.082092,1896.168213 887.007385,1887.377563 
	C891.100281,1875.078491 899.722717,1867.163696 912.236877,1865.286743 
	C922.487000,1863.749512 933.281860,1863.950806 942.178345,1871.057373 
	C948.635132,1876.214844 952.369873,1882.997070 953.229858,1891.992554 
	C947.853271,1891.992554 942.763245,1892.110352 937.688782,1891.882690 
	C936.786377,1891.842285 935.948425,1890.366821 935.042908,1889.145752 
z"/>
<path fill="#0C0C0C" opacity="1.000000" stroke="none" 
	d="
M783.000122,1939.831787 
	C783.000000,1915.388916 783.000000,1891.432495 783.000000,1867.238770 
	C788.391113,1867.238770 793.461060,1867.238770 798.766968,1867.238770 
	C798.766968,1892.400635 798.766968,1917.465942 798.766968,1942.998169 
	C794.233032,1942.998169 789.777893,1943.133423 785.345337,1942.877319 
	C784.517090,1942.829346 783.779663,1941.211670 783.000122,1939.831787 
z"/>
<path fill="#FFFFFF" opacity="1.000000" stroke="none" 
	d="
M681.000000,165.000000 
	C693.085999,165.333405 704.783264,164.771332 716.233887,166.194031 
	C737.469482,168.832458 758.736694,171.792938 779.662109,176.185028 
	C799.916931,180.436371 820.026672,185.830429 839.715698,192.216019 
	C866.347107,200.853165 891.791992,212.557281 916.454895,225.867615 
	C941.645508,239.462769 965.493225,255.166183 988.047363,272.735016 
	C999.028992,281.289368 1009.274475,290.813690 1019.597839,300.180328 
	C1027.941284,307.750610 1036.323853,315.354095 1043.946411,323.627106 
	C1060.521973,341.617065 1076.101318,360.416107 1090.291138,380.432678 
	C1105.725464,402.204987 1119.689453,424.834259 1131.114868,448.854767 
	C1140.333984,468.237030 1148.180786,488.309875 1155.885986,508.364655 
	C1165.138672,532.446960 1170.745972,557.614807 1175.845337,582.839355 
	C1177.904175,593.022766 1178.568604,603.482727 1180.018677,613.795532 
	C1183.496216,638.526306 1184.688232,663.407532 1183.849976,688.316528 
	C1183.332764,703.685608 1181.353394,719.005859 1180.016235,734.346802 
	C1177.929321,758.290649 1173.482056,781.860413 1166.827515,804.884460 
	C1160.998657,825.051453 1154.511108,845.116089 1146.790527,864.622803 
	C1139.525269,882.979187 1131.019897,900.949524 1121.700195,918.361816 
	C1109.746216,940.695679 1096.235596,962.210205 1080.338501,982.014648 
	C1069.073242,996.048950 1057.590576,1009.992554 1045.188110,1023.007690 
	C1031.925537,1036.925781 1017.723145,1049.985840 1003.476807,1062.920044 
	C980.834106,1083.477417 955.501343,1100.442261 929.217346,1115.880493 
	C895.282654,1135.812622 859.296936,1151.446289 821.565674,1162.505615 
	C800.891663,1168.565186 779.607971,1172.687988 758.435181,1176.849731 
	C745.526672,1179.387085 732.348572,1181.122681 719.216797,1181.830078 
	C695.578003,1183.103638 671.872070,1184.078613 648.215454,1183.731201 
	C633.104309,1183.509277 617.921570,1181.348755 602.968323,1178.867554 
	C582.751404,1175.513062 562.480469,1171.944214 542.684509,1166.746460 
	C523.333435,1161.665771 504.282959,1155.116943 485.596954,1147.922974 
	C468.984039,1141.527222 452.679962,1134.073975 436.905457,1125.815552 
	C413.318207,1113.466919 390.476929,1099.690796 369.633575,1083.004150 
	C354.450317,1070.848877 339.805481,1058.019409 324.967346,1045.435425 
	C308.193787,1031.209961 294.147919,1014.425659 280.076996,997.643555 
	C260.581177,974.391418 243.812393,949.322937 228.949127,922.897827 
	C210.668701,890.397583 195.814560,856.383179 185.519836,820.608276 
	C179.470978,799.587952 175.759094,777.895508 170.977783,756.509460 
	C170.699112,755.262939 170.256531,754.053040 169.740173,752.323486 
	C171.424500,752.201111 172.809311,752.013000 174.194168,752.012634 
	C230.357773,751.997864 286.521423,752.024231 342.684906,751.939453 
	C346.035736,751.934387 347.281464,752.858215 348.133057,756.326233 
	C352.733887,775.063599 359.036621,793.217712 366.887360,810.894348 
	C375.288971,829.811218 385.056305,847.923706 397.070282,864.730286 
	C404.719208,875.430481 412.853149,885.843811 421.479736,895.768494 
	C429.955200,905.519470 438.860321,915.004944 448.412506,923.687744 
	C464.275848,938.107300 481.430603,950.971375 499.888672,961.956909 
	C518.022888,972.749695 536.977783,981.836243 556.713806,989.403687 
	C576.336914,996.927917 596.653625,1001.783325 617.158447,1005.819397 
	C626.895813,1007.736023 636.939392,1008.410950 646.881042,1008.901123 
	C661.447754,1009.619263 676.067200,1010.278259 690.627014,1009.808533 
	C702.493530,1009.425598 714.306763,1007.362976 726.141174,1006.022766 
	C746.111755,1003.761230 765.422791,998.564636 784.282349,991.917419 
	C816.819946,980.449219 847.047485,964.583069 874.811646,943.888184 
	C892.346191,930.818176 908.389526,916.181335 923.088745,900.166870 
	C938.338501,883.552368 951.624634,865.361389 963.107605,845.831909 
	C976.047119,823.825195 986.478638,800.790100 994.186707,776.473877 
	C999.559448,759.524597 1003.808533,742.324646 1005.965759,724.663879 
	C1007.173950,714.772095 1008.272217,704.851685 1008.924927,694.911621 
	C1009.596741,684.680969 1010.333313,674.378296 1009.833740,664.166138 
	C1009.187744,650.961670 1007.505737,637.796936 1005.980530,624.648743 
	C1003.405090,602.446655 997.613525,581.003052 990.011108,560.037109 
	C978.851074,529.259705 963.499634,500.775299 944.051392,474.374573 
	C930.878235,456.492157 915.797852,440.419250 899.667236,425.343658 
	C883.037476,409.801605 864.529358,396.626251 844.945923,384.983978 
	C821.761475,371.201019 797.345581,360.135437 771.367554,352.918793 
	C756.952209,348.914276 742.181152,346.171509 727.537659,343.012146 
	C705.434021,338.243286 683.007385,338.808319 660.299683,339.100250 
	C660.299683,394.942383 660.299683,450.682068 660.299683,506.847076 
	C663.722107,506.567963 667.202332,506.064850 670.686707,506.034424 
	C700.111145,505.777496 728.068909,512.170105 753.713196,526.570923 
	C764.926758,532.868103 775.196167,541.004028 785.348816,548.997742 
	C802.394958,562.419067 814.556152,580.010986 824.310242,599.055603 
	C832.311707,614.678223 838.289856,631.261902 839.945007,648.976685 
	C840.923340,659.447693 841.987854,669.979858 841.858398,680.470215 
	C841.618652,699.897888 837.490417,718.629761 830.087463,736.679504 
	C822.065552,756.238464 811.037903,773.685059 796.503906,789.127502 
	C778.311157,808.457581 757.119934,822.928650 732.175293,832.067383 
	C716.383484,837.852783 700.225403,841.005981 683.413635,842.158569 
	C656.748962,843.986511 631.530823,838.979492 607.158020,828.605591 
	C589.382507,821.039673 573.746704,810.358826 559.546753,797.219116 
	C542.602539,781.539978 529.569397,763.186340 520.127869,742.294067 
	C514.016357,728.770447 509.520508,714.628723 508.047821,699.753113 
	C507.110077,690.281189 506.092712,680.760742 506.085480,671.261353 
	C505.965454,513.769958 506.024933,356.278534 505.881927,198.787231 
	C505.877563,193.969131 507.345520,192.329422 511.877930,190.815857 
	C535.902954,182.792801 560.428101,176.751541 585.277771,172.168884 
	C598.870483,169.662170 612.703247,168.100372 626.499268,167.141571 
	C644.462341,165.893173 662.496460,165.666412 681.000000,165.000000 
z"/>
<path fill="#FFFFFF" opacity="1.000000" stroke="none" 
	d="
M128.859940,1747.000000 
	C119.727127,1747.000000 111.075119,1747.007202 102.423134,1746.997559 
	C96.980202,1746.991455 94.089012,1744.130493 94.011520,1738.594727 
	C93.953300,1734.435791 93.749771,1730.257080 94.056175,1726.120117 
	C94.570274,1719.179077 93.344528,1713.056641 85.865639,1708.000000 
	C93.900650,1708.000000 100.427124,1708.000000 106.953598,1708.000000 
	C114.607285,1708.000000 122.261055,1707.977417 129.914627,1708.006470 
	C137.501740,1708.035156 144.819519,1713.076782 147.705536,1720.201904 
	C150.616653,1727.389038 148.903763,1736.855347 143.541809,1741.899780 
	C139.598755,1745.609253 134.927109,1747.676270 128.859940,1747.000000 
z"/>
<path fill="#FFFFFF" opacity="1.000000" stroke="none" 
	d="
M135.527573,1670.809570 
	C131.549149,1671.655884 127.948883,1672.753052 124.308136,1672.909912 
	C117.175934,1673.217041 110.000969,1672.669800 102.882195,1673.105347 
	C97.290192,1673.447510 94.526642,1669.227905 94.042900,1664.335083 
	C93.798882,1661.866577 93.857391,1659.344360 94.026794,1656.863403 
	C94.532135,1649.462402 94.138924,1642.412720 85.928909,1637.002319 
	C101.676788,1637.002319 115.885452,1636.768799 130.080643,1637.104614 
	C136.801102,1637.263550 144.243866,1643.489990 144.889404,1649.227905 
	C145.853577,1657.797729 146.043076,1665.625366 135.527573,1670.809570 
z"/>
<path fill="#FFFFFF" opacity="1.000000" stroke="none" 
	d="
M1169.371826,1645.768311 
	C1175.848267,1651.388184 1178.293091,1658.720215 1178.863403,1666.413086 
	C1179.718384,1677.947876 1180.648804,1689.631470 1179.694214,1701.097534 
	C1178.907715,1710.546021 1179.632935,1720.098999 1176.387085,1729.601074 
	C1171.867920,1742.830200 1155.323120,1748.772949 1144.358643,1746.698975 
	C1127.084229,1743.431152 1120.819214,1732.527710 1120.092651,1718.085083 
	C1119.335815,1703.041504 1119.044800,1687.957886 1119.153687,1672.896118 
	C1119.192749,1667.507080 1120.453491,1661.958130 1122.105469,1656.785034 
	C1125.452271,1646.304443 1132.888794,1640.607544 1143.929077,1638.878418 
	C1153.504272,1637.378540 1161.770020,1639.231812 1169.371826,1645.768311 
z"/>
<path fill="#FFFFFF" opacity="1.000000" stroke="none" 
	d="
M627.539368,1640.208252 
	C637.300110,1644.104492 643.592773,1651.148438 644.752380,1660.842651 
	C646.390320,1674.535522 646.928650,1688.437378 646.787476,1702.238037 
	C646.695374,1711.238770 645.214355,1720.367676 643.197693,1729.174072 
	C639.882507,1743.651001 621.920349,1748.708740 611.261414,1746.672852 
	C593.816956,1743.340698 587.764648,1732.160156 587.084961,1717.992554 
	C586.363342,1702.949707 585.812378,1687.860107 586.206848,1672.817627 
	C586.422791,1664.580933 587.510864,1656.121582 592.938110,1648.995850 
	C597.336975,1643.220215 603.182312,1640.614380 609.988525,1638.872314 
	C616.010620,1637.330933 621.515442,1638.666870 627.539368,1640.208252 
z"/>
</svg>